<?xml version="1.0" standalone="no"?>
<!DOCTYPE svg PUBLIC "-//W3C//DTD SVG 20010904//EN"
 "http://www.w3.org/TR/2001/REC-SVG-20010904/DTD/svg10.dtd">
<svg version="1.0" xmlns="http://www.w3.org/2000/svg"
 width="920.000000pt" height="585.000000pt" viewBox="0 0 920.000000 585.000000"
 preserveAspectRatio="xMidYMid meet">

<g transform="translate(0.000000,585.000000) scale(0.100000,-0.100000)"
fill="#000000" stroke="none">
<path d="M4290 5799 c-406 -49 -730 -145 -1073 -321 -263 -135 -496 -304 -716
-521 -241 -238 -415 -477 -561 -767 -112 -224 -224 -563 -255 -777 -4 -21 -8
-45 -11 -54 -12 -43 -34 -320 -34 -439 0 -120 20 -380 35 -442 2 -13 7 -35 9
-50 40 -248 129 -515 257 -774 284 -575 732 -1021 1318 -1314 620 -310 1320
-392 2011 -238 538 120 1042 398 1435 793 320 320 548 684 694 1108 149 433
189 932 111 1392 -97 571 -365 1096 -779 1528 -52 55 -245 223 -336 293 -77
59 -251 171 -354 228 -335 185 -726 308 -1119 351 -147 16 -507 18 -632 4z
m720 -114 c246 -39 453 -95 666 -180 1309 -525 2028 -1905 1693 -3246 -282
-1132 -1250 -1973 -2429 -2113 -1198 -142 -2360 470 -2899 1526 -399 782 -400
1708 -3 2488 288 565 770 1026 1349 1290 290 132 579 210 943 254 90 11 579
-3 680 -19z"/>
<path d="M4390 5594 c-136 -12 -350 -49 -483 -83 -808 -206 -1481 -767 -1817
-1511 -448 -994 -246 -2148 515 -2939 418 -435 956 -712 1575 -812 183 -30
537 -37 730 -15 631 73 1205 346 1644 780 660 654 932 1578 730 2481 -86 384
-288 793 -546 1107 -115 139 -310 326 -455 435 -372 280 -809 463 -1276 534
-128 20 -501 33 -617 23z m510 -109 c847 -99 1567 -559 1994 -1275 166 -279
277 -585 333 -925 26 -157 26 -592 0 -750 -54 -330 -155 -617 -309 -888 -322
-563 -840 -986 -1461 -1193 -93 -30 -170 -54 -171 -52 -2 1 7 95 20 208 13
113 23 213 24 222 0 15 3 16 33 3 54 -22 182 -45 254 -45 165 1 342 73 466
191 l72 69 -47 -26 c-73 -39 -147 -62 -244 -75 -110 -14 -229 4 -352 52 l-81
32 -7 44 c-3 24 -4 47 -1 50 4 3 46 -4 94 -16 298 -73 486 -68 670 18 130 61
262 172 330 278 44 69 42 76 -9 26 -109 -105 -245 -150 -513 -173 -173 -14
-296 -29 -375 -46 -99 -21 -125 -15 -45 10 164 52 240 127 345 343 39 81 81
160 92 176 11 15 19 30 16 32 -7 8 -171 -134 -332 -288 -92 -89 -195 -179
-229 -199 -33 -21 -61 -37 -63 -35 -1 1 -10 92 -20 201 l-17 199 24 19 c156
123 244 217 292 313 24 48 24 54 16 155 -19 217 -92 682 -108 688 -5 2 -7 12
-4 22 4 14 0 20 -11 20 -19 0 -20 4 -5 29 9 14 6 44 -14 137 -14 65 -32 147
-39 181 -12 61 -12 62 -61 83 -26 12 -98 28 -159 36 -134 17 -203 44 -288 111
-59 46 -150 100 -150 89 0 -3 9 -20 20 -39 15 -25 20 -50 19 -88 -1 -30 4 -74
10 -99 15 -56 1 -228 -29 -346 -25 -99 -106 -265 -159 -324 l-40 -45 -1 40
c-3 164 -21 429 -35 526 -16 110 -16 118 0 150 17 31 18 32 31 14 8 -11 20
-34 26 -52 14 -38 20 -40 39 -15 12 15 12 16 -2 5 -14 -11 -18 -7 -28 30 -7
23 -26 66 -42 96 -16 30 -28 55 -26 56 1 2 18 10 37 20 19 10 61 33 93 52 47
28 56 38 46 49 -6 8 -17 14 -23 14 -6 0 -4 -4 4 -10 25 -15 3 -23 -32 -11 -61
21 -207 25 -276 7 -71 -18 -101 -21 -87 -8 25 23 108 46 190 53 l90 7 -90 -2
c-95 -3 -210 -37 -202 -59 2 -7 37 -31 78 -55 41 -24 80 -47 88 -51 12 -7 10
-20 -16 -72 -17 -35 -34 -75 -38 -89 -4 -14 -12 -28 -17 -31 -7 -4 -6 -9 1
-13 6 -4 17 9 26 30 26 63 35 69 56 34 17 -28 18 -35 4 -130 -18 -116 -34
-353 -35 -487 0 -51 -4 -93 -8 -93 -13 0 -91 109 -123 172 -87 172 -136 473
-94 574 9 22 12 47 8 63 -9 32 -5 58 13 94 27 52 -21 28 -168 -85 -56 -43
-110 -61 -238 -83 -103 -17 -208 -44 -215 -55 -8 -13 -75 -337 -75 -364 0 -14
6 -26 13 -26 7 0 4 -7 -7 -15 -11 -8 -21 -23 -23 -32 -1 -10 -16 -92 -33 -183
-31 -172 -64 -406 -76 -546 -6 -79 -5 -84 26 -142 39 -73 153 -198 244 -267
l66 -50 -6 -70 c-13 -163 -33 -337 -38 -342 -7 -7 -92 42 -145 85 -24 20 -104
93 -177 163 -121 116 -292 259 -309 259 -3 0 2 -12 13 -27 11 -16 50 -86 87
-158 83 -159 110 -198 169 -253 47 -43 155 -102 188 -102 22 0 72 -19 66 -25
-2 -3 -49 4 -104 15 -54 11 -189 27 -299 35 -232 18 -298 27 -392 56 -81 25
-140 57 -207 112 l-50 41 20 -34 c35 -63 203 -222 278 -263 218 -118 400 -133
719 -56 71 17 130 30 131 28 2 -2 1 -24 -3 -48 l-6 -45 -78 -34 c-188 -80
-405 -83 -565 -5 -32 15 -61 29 -67 31 -5 2 18 -24 53 -57 72 -68 207 -140
312 -167 95 -24 280 -16 376 17 l71 25 23 -214 c12 -117 20 -215 18 -218 -7
-6 -164 40 -277 83 -515 192 -976 560 -1277 1018 -217 331 -348 684 -406 1100
-16 116 -16 482 0 605 64 484 249 923 549 1300 86 108 293 316 403 404 387
309 870 511 1367 571 150 18 461 18 613 0z"/>
<path d="M4493 4794 c-52 -19 -125 -82 -147 -128 -39 -82 -22 -166 40 -192 46
-19 87 -11 115 24 24 31 22 82 -7 147 -25 57 -25 63 3 85 18 14 41 20 73 20
43 0 51 -4 83 -39 43 -47 50 -81 45 -198 -3 -82 -7 -95 -56 -199 -43 -91 -54
-125 -59 -183 -6 -66 -5 -71 14 -71 15 0 20 7 21 30 2 79 32 118 153 203 89
62 153 135 169 192 19 70 8 159 -27 209 -33 47 -116 101 -170 110 -67 11 -206
5 -250 -10z"/>
<path d="M5942 4623 c37 -38 91 -103 120 -145 74 -107 178 -227 267 -306 102
-91 166 -140 159 -122 -3 8 -18 56 -33 105 -42 139 -98 238 -180 321 -76 77
-132 110 -299 175 l-101 39 67 -67z"/>
<path d="M3154 4616 c-251 -107 -353 -216 -425 -449 -20 -67 -40 -131 -45
-141 -14 -37 250 200 296 264 119 165 193 261 242 313 30 31 49 57 43 56 -5 0
-55 -20 -111 -43z"/>
<path d="M6407 4407 c28 -29 60 -71 71 -93 11 -21 43 -127 70 -234 28 -107 62
-223 76 -257 13 -35 23 -63 20 -63 -2 0 -15 23 -30 52 -37 72 -112 149 -229
231 -144 101 -190 142 -226 198 -18 27 -34 48 -35 46 -8 -8 31 -130 61 -193
41 -84 103 -151 245 -263 131 -102 234 -203 267 -259 14 -24 27 -42 28 -40 1
2 -1 28 -5 58 -4 30 -5 139 -2 241 4 155 2 198 -12 257 -39 157 -170 309 -309
358 l-40 14 50 -53z"/>
<path d="M2730 4398 c-25 -12 -79 -56 -121 -97 -125 -125 -155 -216 -149 -446
2 -77 3 -189 3 -248 l-2 -108 40 60 c42 63 130 148 264 254 147 116 250 266
273 397 6 30 9 57 7 58 -2 2 -11 -11 -20 -28 -29 -56 -96 -120 -231 -221 -133
-100 -190 -160 -238 -254 -35 -68 -32 -48 8 65 18 52 48 160 65 240 36 165 81
271 136 319 42 36 28 40 -35 9z"/>
<path d="M6740 4138 c0 -3 11 -30 25 -59 37 -83 46 -193 28 -358 -14 -131 -13
-427 2 -491 5 -18 4 -21 -3 -10 -5 8 -13 37 -17 64 -17 121 -80 214 -244 359
-65 58 -134 126 -152 151 -18 25 -34 44 -36 42 -9 -8 62 -207 98 -276 22 -41
85 -136 140 -210 127 -171 165 -234 198 -338 l28 -83 12 68 c11 63 27 114 108
343 24 68 27 89 27 225 1 156 -6 201 -54 329 -26 69 -160 274 -160 244z"/>
<path d="M2407 4078 c-80 -107 -144 -238 -169 -349 -17 -74 -16 -271 1 -339 8
-30 40 -124 72 -210 31 -85 63 -182 69 -215 l13 -60 16 60 c24 85 82 189 206
367 119 171 153 235 189 362 32 110 33 129 2 83 -14 -20 -87 -98 -163 -174
-177 -176 -203 -221 -238 -407 -13 -64 -14 -11 -4 118 11 125 9 158 -11 339
-27 229 -21 317 24 407 29 58 27 63 -7 18z"/>
<path d="M4539 3923 c-80 -49 -78 -185 3 -229 56 -31 139 -9 172 46 19 33 21
106 2 138 -31 57 -121 80 -177 45z"/>
<path d="M4698 3603 c7 -3 16 -2 19 1 4 3 -2 6 -13 5 -11 0 -14 -3 -6 -6z"/>
<path d="M4745 3590 c27 -12 43 -12 25 0 -8 5 -22 9 -30 9 -10 0 -8 -3 5 -9z"/>
<path d="M7017 3425 c8 -116 -15 -197 -140 -500 -27 -65 -58 -167 -77 -250
-17 -77 -35 -144 -40 -149 -13 -13 -13 -12 5 54 18 69 19 189 1 255 -21 80
-42 121 -132 272 -47 77 -96 170 -109 205 l-24 63 0 -62 c-2 -125 56 -395 132
-623 41 -123 42 -128 42 -264 l0 -138 20 27 c11 16 71 94 133 174 62 80 126
169 143 196 115 198 145 570 60 767 l-18 43 4 -70z"/>
<path d="M2155 3408 c-54 -184 -58 -353 -10 -547 40 -162 73 -222 215 -391 39
-47 90 -113 113 -147 23 -35 44 -63 48 -63 3 0 2 26 -3 58 -15 89 -2 171 63
396 33 116 69 262 79 325 21 122 37 301 27 301 -3 0 -15 -29 -27 -64 -12 -36
-39 -92 -60 -125 -92 -143 -145 -258 -171 -371 -15 -64 -12 -187 5 -242 8 -27
10 -48 6 -48 -8 0 -21 46 -63 230 -15 63 -45 151 -77 220 -28 63 -68 158 -87
210 -33 86 -36 105 -37 202 -1 60 -2 108 -3 108 -1 0 -9 -24 -18 -52z"/>
<path d="M6507 2718 c-38 -117 -53 -207 -71 -443 -9 -110 -23 -236 -31 -281
-17 -89 -57 -215 -80 -250 -23 -35 -18 -50 8 -27 12 12 101 73 198 136 201
132 286 201 362 295 78 97 122 175 158 283 27 80 32 112 36 214 l3 120 -27
-81 c-38 -111 -99 -198 -250 -356 -78 -82 -162 -183 -216 -261 -49 -70 -91
-127 -93 -127 -2 0 9 26 24 58 56 110 67 158 67 282 -1 80 -8 150 -24 230 -13
63 -26 156 -29 205 l-7 90 -28 -87z"/>
<path d="M2658 2717 c2 -30 -10 -121 -27 -210 -49 -250 -39 -387 34 -526 19
-35 33 -66 31 -68 -2 -2 -40 49 -84 114 -53 77 -132 172 -229 273 -187 196
-224 250 -258 375 l-14 50 0 -95 c-1 -221 70 -390 234 -556 94 -95 166 -148
403 -301 156 -101 156 -101 101 9 -37 73 -54 154 -74 349 -32 312 -37 355 -51
424 -16 79 -54 204 -63 209 -3 2 -5 -19 -3 -47z"/>
<path d="M6327 2243 c-128 -168 -167 -244 -248 -480 -71 -207 -123 -313 -196
-400 -46 -54 -50 -61 -27 -53 15 6 117 29 227 51 228 45 304 73 435 159 199
131 371 359 397 525 l6 40 -21 -38 c-34 -63 -158 -184 -234 -231 -39 -24 -143
-80 -230 -125 -172 -89 -238 -131 -330 -210 -33 -28 -61 -49 -63 -48 -1 2 24
31 55 65 66 70 113 144 147 229 23 56 35 112 71 343 9 58 27 133 39 168 12 34
21 62 19 62 -1 0 -23 -26 -47 -57z"/>
<path d="M2820 2267 c0 -4 6 -20 14 -35 18 -37 42 -143 66 -294 37 -234 79
-327 209 -462 52 -54 59 -65 33 -50 -18 10 -63 43 -100 72 -85 68 -165 115
-327 192 -221 104 -342 199 -417 325 -33 55 -31 39 9 -74 55 -157 213 -343
388 -457 110 -71 185 -99 358 -129 138 -25 256 -49 307 -62 23 -6 23 -4 -8 21
-45 39 -117 142 -151 218 -16 35 -52 131 -81 212 -61 176 -102 261 -181 376
-64 93 -118 160 -119 147z"/>
</g>
</svg>
